<?xml version="1.0" encoding="UTF-8"?>
<svg width="2176px" height="268px" viewBox="0 0 2176 268" version="1.1" xmlns="http://www.w3.org/2000/svg" xmlns:xlink="http://www.w3.org/1999/xlink">
    <title>Mountain</title>
    <g id="Page-1" stroke="none" stroke-width="1" fill="none" fill-rule="evenodd">
        <g id="Home" transform="translate(448.000000, -531.000000)" fill-rule="nonzero">
            <g id="Mountain" transform="translate(-448.000000, 531.000000)">
                <g id="Group" transform="translate(1448.000000, 1.000000)">
                    <path d="M-0.000503638084,59.4455611 C28.7577346,59.4455611 46.4948606,93.2880745 68.2278512,92.9304929 C89.0009076,92.5890049 91.6309057,92.9304929 115.990369,92.9304929 C165.906947,92.9304929 157.550584,94.426703 176.398232,101.121678 C189.156391,105.652554 204.381371,104.078893 214.920501,97.1279281 L214.920501,97.1279281 C217.65576,95.3279496 226.84514,91.7259808 238.550697,91.7259808 C250.256253,91.7259808 257.282508,95.3732131 273.942352,106.733849 C288.248695,116.490648 307.066125,121.914221 326.615845,121.914221 L449.779027,121.914221 C461.340039,121.914221 472.528863,118.941918 481.395915,113.518345 L481.395915,113.518345 C498.03511,103.352665 518.999549,97.7857577 540.665556,97.7857577 L555.828587,97.7857577 C567.884676,97.7857577 579.053354,93.1492665 585.246592,85.5701448 L618.210208,46.2728766 C627.665509,34.7055375 658.82459,35.5187718 665.642339,31.4420392 C672.460088,27.3653065 688.234536,-0.00100585557 707.711732,-0.00100585557 L725.238337,-0.00100585557 L725.238337,266.999331 L-0.000503638084,266.999331 L-0.000503638084,59.4455611 Z" id="Path" fill="#DCDCDC"></path>
                    <path d="M334.606897,147.13957 C339.54255,146.778803 344.539144,146.596743 349.596677,146.59339 L1.7021236,146.59339 L1.7021236,250.078326 L62.4167019,250.078326 C92.1147288,250.078326 97.9231868,209.743517 125.442979,209.743517 C152.962771,209.743517 180.521847,210.041251 180.521847,210.041251 C180.521847,210.041251 194.787396,211.069738 204.444656,207.115217 C214.101916,203.160696 223.252517,192.454872 223.252517,192.454872 C240.468377,176.569898 263.946474,163.225212 291.135376,155.098402 C312.717779,161.542919 341.948933,171.821254 362.929992,185.164431 C391.748163,203.490616 405.432513,231.275365 443.53072,231.275365 C478.263617,231.275365 726.93895,230.19407 726.93895,230.19407 L726.93895,150.697784 C723.752431,147.075698 652.796373,146.108568 563.867485,146.108568 C490.34388,146.108568 404.523447,146.770421 334.606897,147.13957 Z" id="Path" fill="#E4E4E4" transform="translate(364.320537, 198.093447) rotate(180.000000) translate(-364.320537, -198.093447) "></path>
                    <g transform="translate(1.700109, 214.681765)" fill="#EEEEEE" id="Path">
                        <path d="M0,8.17760576 C0,8.17760576 28.2122945,17.7266956 69.1399398,19.41603 C110.067585,21.1053644 163.711588,19.41603 163.711588,19.41603 C179.95442,19.41603 208.713666,3.77497594 240.634247,3.77497594 C272.554829,3.77497594 276.777331,9.77238976 307.207144,10.1702056 C337.636957,10.5680215 339.780944,4.57463112 369.728775,5.19423815 C397.848904,5.77612559 420.89085,12.6581894 465.571103,12.6581894 L542.601037,12.6581894 C550.701624,12.6954826 558.766582,11.5855368 566.555071,9.36149776 L584.266512,4.16273326 C594.112093,1.35503453 604.306152,-0.0466188685 614.545233,-0.000502927783 L725.238841,-0.000502927783 L725.238841,51.3041661 L0,51.3041661 L0,8.17760576 Z"></path>
                    </g>
                </g>
                <g id="Group-Copy" transform="translate(1086.000000, 133.500000) scale(-1, 1) translate(-1086.000000, -133.500000) translate(722.000000, 0.000000)">
                    <path d="M-0.000503638084,59.4455611 C28.7577346,59.4455611 46.4948606,93.2880745 68.2278512,92.9304929 C89.0009076,92.5890049 91.6309057,92.9304929 115.990369,92.9304929 C165.906947,92.9304929 157.550584,94.426703 176.398232,101.121678 C189.156391,105.652554 204.381371,104.078893 214.920501,97.1279281 L214.920501,97.1279281 C217.65576,95.3279496 226.84514,91.7259808 238.550697,91.7259808 C250.256253,91.7259808 257.282508,95.3732131 273.942352,106.733849 C288.248695,116.490648 307.066125,121.914221 326.615845,121.914221 L449.779027,121.914221 C461.340039,121.914221 472.528863,118.941918 481.395915,113.518345 L481.395915,113.518345 C498.03511,103.352665 518.999549,97.7857577 540.665556,97.7857577 L555.828587,97.7857577 C567.884676,97.7857577 579.053354,93.1492665 585.246592,85.5701448 L618.210208,46.2728766 C627.665509,34.7055375 658.82459,35.5187718 665.642339,31.4420392 C672.460088,27.3653065 688.234536,-0.00100585557 707.711732,-0.00100585557 L725.238337,-0.00100585557 L725.238337,266.999331 L-0.000503638084,266.999331 L-0.000503638084,59.4455611 Z" id="Path" fill="#DCDCDC"></path>
                    <path d="M334.606897,147.13957 C339.54255,146.778803 344.539144,146.596743 349.596677,146.59339 L1.7021236,146.59339 L1.7021236,250.078326 L62.4167019,250.078326 C92.1147288,250.078326 97.9231868,209.743517 125.442979,209.743517 C152.962771,209.743517 180.521847,210.041251 180.521847,210.041251 C180.521847,210.041251 194.787396,211.069738 204.444656,207.115217 C214.101916,203.160696 223.252517,192.454872 223.252517,192.454872 C240.468377,176.569898 263.946474,163.225212 291.135376,155.098402 C312.717779,161.542919 341.948933,171.821254 362.929992,185.164431 C391.748163,203.490616 405.432513,231.275365 443.53072,231.275365 C478.263617,231.275365 726.93895,230.19407 726.93895,230.19407 L726.93895,150.697784 C723.752431,147.075698 652.796373,146.108568 563.867485,146.108568 C490.34388,146.108568 404.523447,146.770421 334.606897,147.13957 Z" id="Path" fill="#E4E4E4" transform="translate(364.320537, 198.093447) rotate(180.000000) translate(-364.320537, -198.093447) "></path>
                    <g id="Group" transform="translate(1.700109, 214.681765)" fill="#EEEEEE">
                        <path d="M0,8.17760576 C0,8.17760576 28.2122945,17.7266956 69.1399398,19.41603 C110.067585,21.1053644 163.711588,19.41603 163.711588,19.41603 C179.95442,19.41603 208.713666,3.77497594 240.634247,3.77497594 C272.554829,3.77497594 276.777331,9.77238976 307.207144,10.1702056 C337.636957,10.5680215 339.780944,4.57463112 369.728775,5.19423815 C397.848904,5.77612559 420.89085,12.6581894 465.571103,12.6581894 L542.601037,12.6581894 C550.701624,12.6954826 558.766582,11.5855368 566.555071,9.36149776 L584.266512,4.16273326 C594.112093,1.35503453 604.306152,-0.0466188685 614.545233,-0.000502927783 L725.238841,-0.000502927783 L725.238841,51.3041661 L0,51.3041661 L0,8.17760576 Z" id="Path"></path>
                    </g>
                </g>
                <g id="Group-Copy-2">
                    <path d="M-0.000503638084,59.4455611 C28.7577346,59.4455611 46.4948606,93.2880745 68.2278512,92.9304929 C89.0009076,92.5890049 91.6309057,92.9304929 115.990369,92.9304929 C165.906947,92.9304929 157.550584,94.426703 176.398232,101.121678 C189.156391,105.652554 204.381371,104.078893 214.920501,97.1279281 L214.920501,97.1279281 C217.65576,95.3279496 226.84514,91.7259808 238.550697,91.7259808 C250.256253,91.7259808 257.282508,95.3732131 273.942352,106.733849 C288.248695,116.490648 307.066125,121.914221 326.615845,121.914221 L449.779027,121.914221 C461.340039,121.914221 472.528863,118.941918 481.395915,113.518345 L481.395915,113.518345 C498.03511,103.352665 518.999549,97.7857577 540.665556,97.7857577 L555.828587,97.7857577 C567.884676,97.7857577 579.053354,93.1492665 585.246592,85.5701448 L618.210208,46.2728766 C627.665509,34.7055375 658.82459,35.5187718 665.642339,31.4420392 C672.460088,27.3653065 688.234536,-0.00100585557 707.711732,-0.00100585557 L725.238337,-0.00100585557 L725.238337,266.999331 L-0.000503638084,266.999331 L-0.000503638084,59.4455611 Z" id="Path" fill="#DCDCDC"></path>
                    <path d="M334.606897,147.13957 C339.54255,146.778803 344.539144,146.596743 349.596677,146.59339 L1.7021236,146.59339 L1.7021236,250.078326 L62.4167019,250.078326 C92.1147288,250.078326 97.9231868,209.743517 125.442979,209.743517 C152.962771,209.743517 180.521847,210.041251 180.521847,210.041251 C180.521847,210.041251 194.787396,211.069738 204.444656,207.115217 C214.101916,203.160696 223.252517,192.454872 223.252517,192.454872 C240.468377,176.569898 263.946474,163.225212 291.135376,155.098402 C312.717779,161.542919 341.948933,171.821254 362.929992,185.164431 C391.748163,203.490616 405.432513,231.275365 443.53072,231.275365 C478.263617,231.275365 726.93895,230.19407 726.93895,230.19407 L726.93895,150.697784 C723.752431,147.075698 652.796373,146.108568 563.867485,146.108568 C490.34388,146.108568 404.523447,146.770421 334.606897,147.13957 Z" id="Path" fill="#E4E4E4" transform="translate(364.320537, 198.093447) rotate(180.000000) translate(-364.320537, -198.093447) "></path>
                    <g id="Group" transform="translate(1.700109, 214.681765)" fill="#EEEEEE">
                        <path d="M0,8.17760576 C0,8.17760576 28.2122945,17.7266956 69.1399398,19.41603 C110.067585,21.1053644 163.711588,19.41603 163.711588,19.41603 C179.95442,19.41603 208.713666,3.77497594 240.634247,3.77497594 C272.554829,3.77497594 276.777331,9.77238976 307.207144,10.1702056 C337.636957,10.5680215 339.780944,4.57463112 369.728775,5.19423815 C397.848904,5.77612559 420.89085,12.6581894 465.571103,12.6581894 L542.601037,12.6581894 C550.701624,12.6954826 558.766582,11.5855368 566.555071,9.36149776 L584.266512,4.16273326 C594.112093,1.35503453 604.306152,-0.0466188685 614.545233,-0.000502927783 L725.238841,-0.000502927783 L725.238841,51.3041661 L0,51.3041661 L0,8.17760576 Z" id="Path"></path>
                    </g>
                </g>
            </g>
        </g>
    </g>
</svg>